/* XPM */
static const char * high_xpm[] = {
"11 15 2 1",
" 	c None",
".	c blue",
"           ",
"...........",
"...........",
"           ",
"     .     ",
"    ...    ",
"   .....   ",
"  .......  ",
" ......... ",
"    ...    ",
"    ...    ",
"    ...    ",
"    ...    ",
"    ...    ",
"           "};
