/* XPM */ 
static const char * sortdesc_xpm[] = {
"22 22 6 1",
" 	c None",
"!	c #D4D0C8",
"#	c #800000",
"$	c black",
"%	c #000080",
"&	c #808080",
"!!!!!!!!!!!!!!!!!!!!!!",
"!!!!!!!!!!!!!!!!!!!!!!",
"!!!!!!!!!!!!!!!!!!!!!!",
"!!!!!######!!!!!$!!!!!",
"!!!!!#!!!##!!!!!$!!!!!",
"!!!!!!!!##!!!!!!$!!!!!",
"!!!!!!!##!!!!!!!$!!!!!",
"!!!!!!##!!!!!!!!$!!!!!",
"!!!!!##!!!#!!!!!$!!!!!",
"!!!!!######!!!!!$!!!!!",
"!!!!!!!!!!!!!!!!$!!!!!",
"!!!!!!!!%!!!!!!!$!!!!!",
"!!!!!!!&%&!!!!!!$!!!!!",
"!!!!!!!%%%!!!!$$$$$!!!",
"!!!!!!&%!%&!!!&$$$&!!!",
"!!!!!!%%%%%!!!!$$$!!!!",
"!!!!!&%!!!%&!!!&$&!!!!",
"!!!!!%%%!%%%!!!!$!!!!!",
"!!!!!!!!!!!!!!!!!!!!!!",
"!!!!!!!!!!!!!!!!!!!!!!",
"!!!!!!!!!!!!!!!!!!!!!!",
"!!!!!!!!!!!!!!!!!!!!!!"};
