/* XPM */
static const char * textcenter[] = {
"22 22 2 1",
" 	c None",
".	c #000000",
"                      ",
"                      ",
"   .................  ",
"                      ",
"     .............    ",
"                      ",
"   .................  ",
"                      ",
"     .............    ",
"                      ",
"   .................  ",
"                      ",
"     .............    ",
"                      ",
"   .................  ",
"                      ",
"     .............    ",
"                      ",
"   .................  ",
"                      ",
"                      ",
"                      "};
