/* XPM */
static const char * low_xpm[] = {
"11 15 2 1",
" 	c None",
".	c blue",
"           ",
"    ...    ",
"    ...    ",
"    ...    ",
"    ...    ",
"    ...    ",
" ......... ",
"  .......  ",
"   .....   ",
"    ...    ",
"     .     ",
"           ",
"...........",
"...........",
"           "};
