/* XPM */ 
static const char * fillcolor_xpm[] = {
"22 22 8 1",
" 	c None",
"!	c #D4D0C8",
"#	c #808080",
"$	c #000080",
"%	c black",
"&	c #C0C0C0",
"'	c white",
"(	c #FFFF00",
"!!!!!!!!!!!!!!!!!!!!!!",
"!!!!!!!!!!!!!!!!!!!!!!",
"!!!!!!!!!!!!!!!!!!!!!!",
"!!!!!!!!#$$#!!!!!!!!!!",
"!!!!!!!!$!!$#!!!!!!!!!",
"!!!!!!!!$!%$%#!!!!!!!!",
"!!!!!!!!$%&$#%#!!!!!!!",
"!!!!!!!!%&'$&#$$$!!!!!",
"!!!!!!!%&'%$%&$$$$!!!!",
"!!!!!!%&''&%&&#$$$!!!!",
"!!!!!%&''&&&&##$$$!!!!",
"!!!!!!%'&&&&##%!$$!!!!",
"!!!!!!!%&&&##%!!$#!!!!",
"!!!!!!!!%###%!!!#!!!!!",
"!!!!!!!!!%#%!!!!!!!!!!",
"!!!((((((((((((((((!!!",
"!!!((((((((((((((((!!!",
"!!!((((((((((((((((!!!",
"!!!((((((((((((((((!!!",
"!!!!!!!!!!!!!!!!!!!!!!",
"!!!!!!!!!!!!!!!!!!!!!!",
"!!!!!!!!!!!!!!!!!!!!!!"};
