/* XPM */ 
static const char * fontcolor_xpm[] = {
"22 22 5 1",
" 	c None",
"!	c #D4D0C8",
"#	c #000080",
"$	c #808080",
"%	c #FF0000",
"!!!!!!!!!!!!!!!!!!!!!!",
"!!!!!!!!!!!!!!!!!!!!!!",
"!!!!!!!!!#!!!!!!!!!!!!",
"!!!!!!!!$#$!!!!!!!!!!!",
"!!!!!!!!###!!!!!!!!!!!",
"!!!!!!!$###$!!!!!!!!!!",
"!!!!!!!##!##!!!!!!!!!!",
"!!!!!!$#!!##$!!!!!!!!!",
"!!!!!!#######!!!!!!!!!",
"!!!!!$#!!!!##$!!!!!!!!",
"!!!!!##!!!!$##!!!!!!!!",
"!!!!$#!!!!!$##$!!!!!!!",
"!!!####!!!######!!!!!!",
"!!!!!!!!!!!!!!!!!!!!!!",
"!!!%%%%%%%%%%%%%%%%!!!",
"!!!%%%%%%%%%%%%%%%%!!!",
"!!!%%%%%%%%%%%%%%%%!!!",
"!!!%%%%%%%%%%%%%%%%!!!",
"!!!!!!!!!!!!!!!!!!!!!!",
"!!!!!!!!!!!!!!!!!!!!!!",
"!!!!!!!!!!!!!!!!!!!!!!",
"!!!!!!!!!!!!!!!!!!!!!!"};
