/* XPM */ 
static const char * sortasc_xpm[] = {
"22 22 6 1",
" 	c None",
"!	c #D4D0C8",
"#	c #000080",
"$	c black",
"%	c #808080",
"&	c #800000",
"!!!!!!!!!!!!!!!!!!!!!!",
"!!!!!!!!!!!!!!!!!!!!!!",
"!!!!!!!!!!!!!!!!!!!!!!",
"!!!!!!!!!!!!!!!!!!!!!!",
"!!!!!!!#!!!!!!!$!!!!!!",
"!!!!!!%#%!!!!!!$!!!!!!",
"!!!!!!###!!!!!!$!!!!!!",
"!!!!!%#!#%!!!!!$!!!!!!",
"!!!!!#####!!!!!$!!!!!!",
"!!!!%#!!!#%!!!!$!!!!!!",
"!!!!###!###!!!!$!!!!!!",
"!!!!!!!!!!!!!!!$!!!!!!",
"!!!!&&&&&&!!!!!$!!!!!!",
"!!!!&!!!&&!!!!!$!!!!!!",
"!!!!!!!&&!!!!$$$$$!!!!",
"!!!!!!&&!!!!!%$$$%!!!!",
"!!!!!&&!!!!!!!$$$!!!!!",
"!!!!&&!!!&!!!!%$%!!!!!",
"!!!!&&&&&&!!!!!$!!!!!!",
"!!!!!!!!!!!!!!!!!!!!!!",
"!!!!!!!!!!!!!!!!!!!!!!",
"!!!!!!!!!!!!!!!!!!!!!!"};
