/* XPM */
static const char * textitalic[] = {
"22 22 2 1",
" 	c None",
".	c #000000",
"                      ",
"                      ",
"                      ",
"                      ",
"          .....       ",
"           ...        ",
"           ...        ",
"           ...        ",
"           ...        ",
"          ...         ",
"          ...         ",
"          ...         ",
"          ...         ",
"         ...          ",
"         ...          ",
"         ...          ",
"         ...          ",
"        .....         ",
"                      ",
"                      ",
"                      ",
"                      "};
